<svg width="16" height="16" viewBox="0 0 16 16" fill="none" xmlns="http://www.w3.org/2000/svg">
<path fill-rule="evenodd" clip-rule="evenodd" d="M9.59656 9.59655C7.87825 11.3149 5.09233 11.3149 3.37402 9.59655C1.65571 7.87824 1.65571 5.09232 3.37402 3.37401C5.09233 1.6557 7.87825 1.6557 9.59656 3.37401C11.3149 5.09232 11.3149 7.87824 9.59656 9.59655ZM10.125 11.2561C7.77275 13.0554 4.39404 12.8793 2.24265 10.7279C-0.100496 8.38478 -0.100496 4.58579 2.24265 2.24264C4.5858 -0.100505 8.38479 -0.100505 10.7279 2.24264C12.8792 4.39394 13.0554 7.77244 11.2564 10.1247L15.5364 14.4047L14.405 15.5361L10.125 11.2561Z" fill="white"/>
</svg>
